# xmcd CD database file
#
# Track frame offsets:
#	150
#	33749
#	63597
#	88399
#
# Disc length: 1375 seconds
#
# Revision: 0
# Processed by: cddbd v1.5.2PL0 Copyright (c) Steve Scherf et al.
# Submitted via: CDex 1.70beta2
#
DISCID=37055d04
DTITLE=divers - confiture de tenors 1974 cd jaz mag collection
DYEAR=2013
DGENRE=Jazz
TTITLE0=Saturday Night Swing Session - Sweet Georgia Brown
TTITLE1=Dexter Gordon et Wardell Gray - The Chase
TTITLE2=Dexter Gordon Quintet (avec Teddy Edwards) - The Duel
TTITLE3=Woody Herman - Four Brothers 
EXTD=YEAR: 2013
EXTT0=
EXTT1=
EXTT2=
EXTT3=
PLAYORDER=
